<svg xmlns="http://www.w3.org/2000/svg" viewBox="0 0 236 120"><defs><style>.a{fill:none;}.b{clip-path:url(#a);}.c{clip-path:url(#b);}.d{fill:url(#c);}.e{fill:#c2b391;fill-rule:evenodd;}.f{fill:#fff;}</style><clipPath id="a"><path d="M83 0H153V70H83z" class="a"/></clipPath><clipPath id="b"><rect width="69.9" height="69.9" x="83.1" class="a" rx="15.7" ry="15.7"/></clipPath><linearGradient id="c" x1="-394.1" x2="-394" y1="-.5" y2="-.5" gradientTransform="matrix(0 -1022.66 -1022.66 0 -392.66 -402930.54)" gradientUnits="userSpaceOnUse"><stop offset="0" stop-color="#2d2d2d"/><stop offset="1" stop-color="#3d3d3d"/></linearGradient></defs><path class="f" d="M54 103.6V89.5c0-1.5.1-1.6 1.7-1.6h5.7c4.6 0 7.3 2.5 7.4 7.1s.1 11.8 0 17.7c-.1 4.1-2.6 6.5-7 6.6H55.3c-1 0-1.4-.4-1.4-1.4C54 113.2 54 108.4 54 103.6zm9.9 0h0V95.8c0-3-.7-3.7-3.7-3.7-1.4 0-1.4 0-1.4 1.5v20.1a1.9 1.9 0 0 0 0 .8 1.3 1.3 0 0 0 .6.6c2.6.8 4.4-.6 4.4-3.3s0-5.4 0-8.2zM131 103.9c.3.3.4.6.5.7a4.7 4.7 0 0 1 2.2 4.4c0 1.9-.1 3.7 0 5.5a14.7 14.7 0 0 0 .7 3.4c.3 1 .1 1.5-1 1.5h-1.7a2.3 2.3 0 0 1-2.4-1.9 19.2 19.2 0 0 1-.4-3.4c-.1-1.9 0-3.8 0-5.8a2.9 2.9 0 0 0-4.3-2.3 1.6 1.6 0 0 0-.4 1.2c0 3.4 0 6.9 0 10.3 0 1.5-.2 1.7-1.7 1.7-3.5.1-3.1.1-3.1-3V89.8c0-1.8.1-1.9 1.9-1.9h6.1c3.7 0 5.9 2.1 6 5.8.1 2 0 4.1 0 6.1A4.4 4.4 0 0 1 131 103.9zm-6.7-6.8h0c0 1.3 0 2.5 0 3.8s.3 1.5 1.4 1.4h.8c1.7 0 2.4-.7 2.4-2.4s0-3 0-4.6-.4-3.4-3.4-3.3h-.2c-.7 0-1 .3-1 1s0 2.7 0 4.1zM199.1 101.3c0 3.8 0 7.6 0 11.4s-1.1 5.3-4 6.6a7.5 7.5 0 0 1-10.6-6.7c0-7.7 0-15.5 0-23.2 0-1.3.2-1.5 1.6-1.5 3.7 0 3.3-.5 3.3 3.2v22.2a2.4 2.4 0 0 0 2.3 2.4 2.7 2.7 0 0 0 2.7-2.2 9.3 9.3 0 0 0 .1-1.5V89.7c0-1.7.1-1.8 1.8-1.8s2.9-.1 2.9 2.9v10.5zM42.6 87.9c3-.1 2.6.1 3 2.4 1 5.7 1.9 11.4 2.8 17.1q.9 5.2 1.8 10.4c.2 1.3.1 1.6-1.3 1.6-3.4.1-3.5.1-3.8-3.3s-.1-2.9-3.3-2.9-1.8 0-2.1 1.7-.3 2.2-.5 3.3-.6 1.2-1.4 1.2c-3.1.1-3.2.1-2.7-2.9 1-6.4 2.1-12.8 3.2-19.2.4-2.5.9-5 1.2-7.4s.3-2 2.3-2zm.1 9.5h-.3a5.4 5.4 0 0 0-.4 1q-.6 4.3-1.2 8.7c-.3 2.2-.3 2.2 1.9 2.2s1.4-.1 1.3-1.4c-.4-3.2-.7-6.5-1.1-9.7l-.3-.8zM81.4 112.3c0-2.9-.2-2.6 2.6-2.6s1.7.1 1.7 1.8a18.1 18.1 0 0 0 .1 2.2 2.4 2.4 0 0 0 2.4 2.2 2.5 2.5 0 0 0 2.9-1.8 5.8 5.8 0 0 0-1-5.2c-1.4-1.9-3.1-3.7-4.7-5.6a15 15 0 0 1-3.7-7.1c-.6-3.4.9-6.8 3.6-8.2s10.2-.6 10.5 6.1a21.8 21.8 0 0 1 0 2.3c-.1 1.1-.3 1.1-2.9 1.1-.8 0-1.5-.1-1.5-1.2s0-1.6 0-2.3-1.2-2.8-2.7-2.7-2.4 1.1-2.4 2.9a7.2 7.2 0 0 0 1.9 4.8c1.7 2.1 3.6 4 5.3 6.1a10.9 10.9 0 0 1 2.4 8.3 6.9 6.9 0 0 1-7.8 6.4C83.5 119.6 81.4 117.1 81.4 112.3zM100.3 103.7q0-4.5 0-9c0-6.6 6.7-8.8 11.3-6.5a5.9 5.9 0 0 1 3.2 4.8 38.4 38.4 0 0 1 .1 4.4.8.8 0 0 1-.1.4c-.9 1.1-2.1.5-3.2.6s-1-.5-1-1.2V94.4a2.5 2.5 0 0 0-2.7-2.7 2.5 2.5 0 0 0-2.7 2.7q-.1 9.3 0 18.6a2.5 2.5 0 0 0 2.3 2.7h.3a2.6 2.6 0 0 0 2.8-2.8c0-.9 0-1.9 0-2.8s.3-1.4 1.3-1.4c3.3 0 2.9-.2 2.9 2.8a10.3 10.3 0 0 1-.8 5c-1.3 2.5-3.5 3.4-6 3.4a7.1 7.1 0 0 1-7.7-7.4C100.3 109.6 100.3 106.6 100.3 103.7zM19.2 103.6V89.3c0-1 .4-1.4 1.4-1.4h9.7c1 0 1.4.4 1.4 1.4 0 3.3.1 2.9-2.8 2.9H25.2c-.8 0-1.2.3-1.2 1.1V100c0 .8.4 1.2 1.2 1.2h3.2a1 1 0 0 1 1.1 1.1c.1 3.4-.1 2.8-2.5 2.9s-2.9-.4-3 3c0 1.9 0 3.7 0 5.5s.4 1.3 1.3 1.3h4.8c1.4 0 1.6.2 1.6 1.5 0 2.9 0 2.9-2.9 2.9h-8c-1.4 0-1.6-.3-1.6-1.6V103.6zM229.7 87.9h4.9c.9 0 1.3.4 1.3 1.2.2 3 .2 3-2.8 3h-3.8c-.7 0-1.1.3-1.1 1.1s0 4.5 0 6.8.4 1.3 1.3 1.2h3.1c.7 0 1.1.3 1.1 1.1.2 2.8.1 2.9-2.7 2.9s-2.8-.4-2.9 2.9 0 3.8 0 5.7.3 1.3 1.2 1.3h5.1c1 0 1.3.3 1.4 1.2.2 3.1.1 3.1-2.9 3.1h-8.1c-1 0-1.4-.4-1.4-1.4q0-14.5 0-29c0-.8.4-1.2 1.2-1.2zM171.1 105.7V93.7c0-1.1-.4-1.6-1.5-1.5h-1.2c-2.1 0-2.1 0-2.1-2.2V88.9a.9.9 0 0 1 .8-1h12.5c.8 0 1.1.4 1.2 1.2.2 3.2.2 3.2-3 3.2s-1.9 0-1.9 1.8v23.6c0 1.6-.1 1.7-1.8 1.8-3.4 0-2.9.1-3-2.9V105.7zM143.8 103.6v14.1c0 1.6-.2 1.8-1.8 1.8-3.6 0-3-.1-3-2.9 0-8.9 0-17.8 0-26.7 0-1.7.1-1.9 1.8-1.9 3.5 0 3-.2 3 3v12.7zM11.2 104.2l1 .5a4.2 4.2 0 0 1 2 3.9c0 2-.1 4.1 0 6.1a10.6 10.6 0 0 0 .6 3c.4 1.3.2 1.7-1.1 1.8H12.3a2.2 2.2 0 0 1-2.3-1.7 9.6 9.6 0 0 1-.4-2.4c-.1-2.3 0-4.6 0-6.9a2.9 2.9 0 0 0-4.3-2.4c-.3.2-.4.8-.4 1.2 0 3.4 0 6.9 0 10.3 0 1.5-.2 1.7-1.7 1.7-3.6 0-3.1 0-3.1-3q0-13 0-26.1a5.4 5.4 0 0 1 .1-1.6c.1-.4.5-.9.8-.9a86 86 0 0 1 9.3.3 4.3 4.3 0 0 1 3.7 4.3 80.4 80.4 0 0 1 .1 8.2C13.9 102.2 12.8 103.1 11.2 104.2zM4.8 97.1h0c0 1.4 0 2.7 0 4.1a1.3 1.3 0 0 0 .4.9 2.8 2.8 0 0 0 4.1-2.3c0-1.6 0-3.2 0-4.8S8.9 91.9 6.1 92H5.9c-.7 0-1.1.3-1.1 1.1s0 2.7 0 4.1zM149.2 103.5V87.9h8.1c3.6.1 5.8 2.2 5.8 5.8s0 4.9 0 7.3-2.1 5.6-5.7 5.7h-1.9c-1.5 0-1.7.2-1.7 1.6v9.2c0 1.6-.2 1.7-1.7 1.7-3.5 0-3.1.2-3.1-3.1S149.2 107.8 149.2 103.5zm4.8-6.2h0v3.2c0 2.5 0 2.5 2.4 2.4s2.1-.5 2.1-2.2 0-3.7 0-5.5-.4-3.4-3.4-3.3c-.9 0-1.2.4-1.2 1.2s0 2.8 0 4.2zM215.5 104.4l.8.4a4 4 0 0 1 2 3.8c0 1.9-.1 3.9 0 5.9a14 14 0 0 0 .7 3.4c.4 1.2.1 1.7-1.1 1.7h-.9c-2.1 0-3.1-.8-3.2-3s-.1-5.1-.1-7.7a4.6 4.6 0 0 0-.2-1.5c-.5-1.2-1.5-1.4-2.6-1.3s-1.9 0-1.9 1.9v9.9c0 1.4-.2 1.6-1.6 1.6-3.7 0-3.2.2-3.2-3.1 0-8.7 0-17.5 0-26.2 0-.3 0-.7 0-1s.4-1.2 1.3-1.2h7a5.4 5.4 0 0 1 5.7 5.7c0 2 0 4 0 6a4.4 4.4 0 0 1-2.5 4.3zm-6.5-7.2h0c0 1.3 0 2.7 0 4a1.5 1.5 0 0 0 .4 1 2.8 2.8 0 0 0 4.1-2.3c0-1.7 0-3.4 0-5.1s-.4-2.7-2.7-2.8h-.6c-.9-.1-1.4.3-1.3 1.3S209.1 95.8 209.1 97.1z"/><g class="b"><path d="M83.1 0H153V69.9H83.1z" class="c d"/><path d="M116.5,39.6v2.9h-3v2.9h3v5.2h3V45.3h3V42.4h-3V39.6Zm18.9-20H100.6a1.2,1.2,0,0,0-1.2,1.2V44.1a1.2,1.2,0,0,0,1.2,1.2h9.9V42.4h-8.1v-20h14.1V36.7h3V22.4h14.1v20h-8.1v2.9h9.9a1.2,1.2,0,0,0,1.2-1.2V20.7a1.2,1.2,0,0,0-1.2-1.2m-12.9,20h8.1V36.7h-8.1Zm0-5.7h8.1V31h-8.1Zm8.1-8.6h-8.1v2.9h8.1Zm-17.1,0h-8.1v2.9h8.1Zm-8.1,14.3h8.1V36.7h-8.1Zm0-5.7h8.1V31h-8.1Z" class="b e"/></g></svg>
